<?xml version="1.0" encoding="UTF-8" standalone="no"?>
<svg
   xmlns:dc="http://purl.org/dc/elements/1.1/"
   xmlns:cc="http://creativecommons.org/ns#"
   xmlns:rdf="http://www.w3.org/1999/02/22-rdf-syntax-ns#"
   xmlns:svg="http://www.w3.org/2000/svg"
   xmlns="http://www.w3.org/2000/svg"
   xmlns:xlink="http://www.w3.org/1999/xlink"
   xmlns:sodipodi="http://sodipodi.sourceforge.net/DTD/sodipodi-0.dtd"
   xmlns:inkscape="http://www.inkscape.org/namespaces/inkscape"
   width="89.89006mm"
   height="22.126007mm"
   viewBox="0 0 89.89006 22.126007"
   version="1.1"
   id="svg1436"
   inkscape:version="1.0 (4035a4fb49, 2020-05-01)"
   sodipodi:docname="logo_web.svg">
  <defs
     id="defs1430">
    <linearGradient
       inkscape:collect="always"
       xlink:href="#linearGradient1133"
       id="linearGradient1028-2"
       x1="20.391459"
       y1="172.46062"
       x2="20.23999"
       y2="131.74452"
       gradientUnits="userSpaceOnUse"
       gradientTransform="matrix(0.4665685,0,0,0.4665685,53.393976,48.100974)" />
    <linearGradient
       inkscape:collect="always"
       id="linearGradient1133">
      <stop
         style="stop-color:#f1d04b;stop-opacity:1"
         offset="0"
         id="stop1129" />
      <stop
         style="stop-color:#fffffe;stop-opacity:1"
         offset="1"
         id="stop1131" />
    </linearGradient>
    <linearGradient
       inkscape:collect="always"
       xlink:href="#linearGradient976"
       id="linearGradient978-0"
       x1="117.38987"
       y1="178.4572"
       x2="117.20844"
       y2="145.3819"
       gradientUnits="userSpaceOnUse"
       gradientTransform="matrix(0.4665685,0,0,0.58014331,51.806475,29.698517)" />
    <linearGradient
       id="linearGradient976"
       inkscape:collect="always">
      <stop
         id="stop972"
         offset="0"
         style="stop-color:#b2b2b2;stop-opacity:1" />
      <stop
         id="stop974"
         offset="1"
         style="stop-color:#fefefe;stop-opacity:1" />
    </linearGradient>
    <linearGradient
       inkscape:collect="always"
       xlink:href="#linearGradient1127"
       id="linearGradient1020-5"
       x1="3.3661511"
       y1="171.33104"
       x2="3.9909542"
       y2="142.02313"
       gradientUnits="userSpaceOnUse"
       gradientTransform="matrix(0.4665685,0,0,0.4665685,53.923143,48.100974)" />
    <linearGradient
       inkscape:collect="always"
       id="linearGradient1127">
      <stop
         style="stop-color:#7e6b16;stop-opacity:1"
         offset="0"
         id="stop1123" />
      <stop
         style="stop-color:#e1c651;stop-opacity:1"
         offset="1"
         id="stop1125" />
    </linearGradient>
    <linearGradient
       inkscape:collect="always"
       xlink:href="#linearGradient1000"
       id="linearGradient1002-9"
       x1="119.75617"
       y1="178.72705"
       x2="120.3455"
       y2="123.08311"
       gradientUnits="userSpaceOnUse"
       gradientTransform="matrix(0.4665685,0,0,0.58014331,51.806475,29.698517)" />
    <linearGradient
       id="linearGradient1000"
       inkscape:collect="always">
      <stop
         id="stop996"
         offset="0"
         style="stop-color:#aeaeae;stop-opacity:1" />
      <stop
         id="stop998"
         offset="1"
         style="stop-color:#fcfcfc;stop-opacity:1" />
    </linearGradient>
    <linearGradient
       inkscape:collect="always"
       xlink:href="#linearGradient1127"
       id="linearGradient1010-1"
       x1="45.931969"
       y1="180.65286"
       x2="45.80637"
       y2="109.35526"
       gradientUnits="userSpaceOnUse"
       gradientTransform="matrix(0.35575115,0,0,0.4665685,57.526236,48.100974)" />
    <linearGradient
       gradientTransform="matrix(1.1641126,0,0,1.1641126,31.22651,-86.43154)"
       gradientUnits="userSpaceOnUse"
       y2="105.47021"
       x2="105.216"
       y1="125.4286"
       x1="105.27333"
       id="linearGradient903"
       xlink:href="#linearGradient901"
       inkscape:collect="always" />
    <linearGradient
       id="linearGradient901"
       inkscape:collect="always">
      <stop
         id="stop897"
         offset="0"
         style="stop-color:#808080;stop-opacity:1" />
      <stop
         id="stop899"
         offset="1"
         style="stop-color:#ffffff;stop-opacity:1" />
    </linearGradient>
    <linearGradient
       gradientTransform="matrix(1.1641126,0,0,1.1641126,31.22651,-86.43154)"
       gradientUnits="userSpaceOnUse"
       y2="103.63333"
       x2="105.09488"
       y1="141.73022"
       x1="105.08619"
       id="linearGradient895"
       xlink:href="#linearGradient893"
       inkscape:collect="always" />
    <linearGradient
       id="linearGradient893"
       inkscape:collect="always">
      <stop
         id="stop889"
         offset="0"
         style="stop-color:#aa8800;stop-opacity:1;" />
      <stop
         id="stop891"
         offset="1"
         style="stop-color:#ffffff;stop-opacity:1" />
    </linearGradient>
  </defs>
  <sodipodi:namedview
     id="base"
     pagecolor="#ffffff"
     bordercolor="#666666"
     borderopacity="1.0"
     inkscape:pageopacity="0.0"
     inkscape:pageshadow="2"
     inkscape:zoom="2.9815958"
     inkscape:cx="173.18527"
     inkscape:cy="58.013478"
     inkscape:document-units="mm"
     inkscape:current-layer="layer1"
     inkscape:document-rotation="0"
     showgrid="false"
     inkscape:window-width="1918"
     inkscape:window-height="1059"
     inkscape:window-x="0"
     inkscape:window-y="19"
     inkscape:window-maximized="1" />
  <metadata
     id="metadata1433">
    <rdf:RDF>
      <cc:Work
         rdf:about="">
        <dc:format>image/svg+xml</dc:format>
        <dc:type
           rdf:resource="http://purl.org/dc/dcmitype/StillImage" />
        <dc:title />
      </cc:Work>
    </rdf:RDF>
  </metadata>
  <g
     inkscape:label="Layer 1"
     inkscape:groupmode="layer"
     id="layer1"
     transform="translate(-108.5133,-45.633425)">
    <g
       transform="matrix(0.88634562,0,0,0.88634562,61.063266,-52.194937)"
       id="g1140">
      <rect
         y="121.431"
         x="57.044907"
         height="4.5356121"
         width="13.229332"
         id="rect925-7"
         style="opacity:0.990342;fill:url(#linearGradient1028-2);fill-opacity:1;stroke:none;stroke-width:0.141303;stroke-opacity:1" />
      <path
         sodipodi:nodetypes="cccccc"
         id="path919-7"
         d="m 75.784757,118.78546 h 62.610893 c 7.96182,0.20021 13.40381,1.78546 16.5553,4.91314 -3.11371,2.88814 -8.29528,4.93699 -16.5553,4.91334 -20.8575,0 -41.715,0 -62.5725,0 z"
         style="opacity:0.990342;fill:url(#linearGradient978-0);fill-opacity:1;stroke:none;stroke-width:0.137653px;stroke-linecap:butt;stroke-linejoin:miter;stroke-opacity:1" />
      <ellipse
         ry="3.8944724"
         rx="2.31165"
         cy="123.69881"
         cx="55.846115"
         id="path927-1"
         style="opacity:0.990342;fill:url(#linearGradient1020-5);fill-opacity:1;stroke:none;stroke-width:0.123446;stroke-opacity:1" />
      <path
         d="m 75.784757,118.78546 v 9.82646 h 0.942965 c -0.03025,-1.47736 1.537087,-4.50985 2.629502,-4.52154 h 75.111556 c 0.15186,-0.12901 0.30084,-0.25916 0.44387,-0.39183 -0.15958,-0.15839 -0.32652,-0.3118 -0.49788,-0.46229 H 79.357224 c -1.010904,-0.0112 -2.67514,-2.79634 -2.631189,-4.4508 z"
         style="opacity:0.990342;fill:url(#linearGradient1002-9);fill-opacity:1;stroke:none;stroke-width:0.0702854;stroke-opacity:1"
         id="rect929-1"
         sodipodi:nodetypes="cccccccccc" />
      <path
         sodipodi:nodetypes="csssscc"
         d="m 72.51002,115.88895 h 2.920476 c 0.253505,0 0.457592,0.26766 0.457592,0.60013 v 14.41943 c 0,0.33248 -0.204087,0.60014 -0.457592,0.60014 H 72.51002 c -3.44451,-1.66469 -3.400255,-14.17418 0,-15.6197 z"
         style="opacity:0.990342;fill:url(#linearGradient1010-1);fill-opacity:1;stroke:none;stroke-width:0.107793;stroke-opacity:1"
         id="rect921-5" />
    </g>
    <g
       style="font-size:12.3202px;line-height:1.25;font-family:Chonkly;-inkscape-font-specification:Chonkly;letter-spacing:0px;word-spacing:0px;fill:url(#linearGradient903);fill-opacity:1;stroke:#737373;stroke-width:0.308004;stroke-opacity:1"
       id="text835"
       aria-label="Co-op">
      <path
         id="path1007"
         style="font-style:normal;font-variant:normal;font-weight:normal;font-stretch:normal;font-family:m6x11;-inkscape-font-specification:m6x11;fill:url(#linearGradient903);fill-opacity:1;stroke:#737373;stroke-width:0.308004;stroke-opacity:1"
         d="m 143.93719,54.25753 h -0.77001 -0.77001 -0.77002 -0.77001 v -0.770012 h -0.77001 V 52.717505 51.947493 51.17748 50.407468 49.637455 48.867443 48.09743 47.327418 46.557405 h 0.77001 v -0.770012 h 0.77001 0.77002 0.77001 0.77001 0.77001 v 0.770012 0.770013 h -0.77001 -0.77001 -0.77001 -0.77002 v 0.770012 0.770013 0.770012 0.770013 0.770012 0.770013 0.770012 h 0.77002 0.77001 0.77001 0.77001 v 0.770013 0.770012 z" />
      <path
         id="path1009"
         style="font-style:normal;font-variant:normal;font-weight:normal;font-stretch:normal;font-family:m6x11;-inkscape-font-specification:m6x11;fill:url(#linearGradient903);fill-opacity:1;stroke:#737373;stroke-width:0.308004;stroke-opacity:1"
         d="m 148.55727,54.25753 h -0.77002 -0.77001 -0.77001 v -0.770012 h -0.77001 V 52.717505 51.947493 51.17748 50.407468 49.637455 48.867443 h 0.77001 V 48.09743 h 0.77001 0.77001 0.77002 0.77001 v 0.770013 h 0.77001 v 0.770012 0.770013 0.770012 0.770013 0.770012 0.770013 h -0.77001 v 0.770012 z m -0.77002,-1.540025 h 0.77002 V 51.947493 51.17748 50.407468 49.637455 h -0.77002 -0.77001 v 0.770013 0.770012 0.770013 0.770012 z" />
      <path
         id="path1011"
         style="font-style:normal;font-variant:normal;font-weight:normal;font-stretch:normal;font-family:m6x11;-inkscape-font-specification:m6x11;fill:url(#linearGradient903);fill-opacity:1;stroke:#737373;stroke-width:0.308004;stroke-opacity:1"
         d="m 154.71737,51.17748 h -0.77002 -0.77001 -0.77001 -0.77001 -0.77002 v -0.770012 -0.770013 h 0.77002 0.77001 0.77001 0.77001 0.77002 0.77001 v 0.770013 0.770012 z" />
      <path
         id="path1013"
         style="font-style:normal;font-variant:normal;font-weight:normal;font-stretch:normal;font-family:m6x11;-inkscape-font-specification:m6x11;fill:url(#linearGradient903);fill-opacity:1;stroke:#737373;stroke-width:0.308004;stroke-opacity:1"
         d="m 159.33744,54.25753 h -0.77001 -0.77001 -0.77002 v -0.770012 h -0.77001 V 52.717505 51.947493 51.17748 50.407468 49.637455 48.867443 h 0.77001 V 48.09743 h 0.77002 0.77001 0.77001 0.77001 v 0.770013 h 0.77002 v 0.770012 0.770013 0.770012 0.770013 0.770012 0.770013 h -0.77002 v 0.770012 z m -0.77001,-1.540025 h 0.77001 V 51.947493 51.17748 50.407468 49.637455 h -0.77001 -0.77001 v 0.770013 0.770012 0.770013 0.770012 z" />
      <path
         id="path1015"
         style="font-style:normal;font-variant:normal;font-weight:normal;font-stretch:normal;font-family:m6x11;-inkscape-font-specification:m6x11;fill:url(#linearGradient903);fill-opacity:1;stroke:#737373;stroke-width:0.308004;stroke-opacity:1"
         d="m 162.41749,56.567568 h -0.77001 V 55.797555 55.027543 54.25753 53.487518 52.717505 51.947493 51.17748 50.407468 49.637455 48.867443 h 0.77001 V 48.09743 h 0.77001 0.77002 0.77001 0.77001 v 0.770013 h 0.77001 v 0.770012 0.770013 0.770012 0.770013 0.770012 0.770013 h -0.77001 v 0.770012 h -0.77001 -0.77001 -0.77002 v 0.770013 0.770012 0.770013 z m 1.54003,-3.850063 h 0.77001 V 51.947493 51.17748 50.407468 49.637455 h -0.77001 -0.77002 v 0.770013 0.770012 0.770013 0.770012 z" />
    </g>
    <g
       style="font-size:13.9943px;line-height:1.25;font-family:Chonkly;-inkscape-font-specification:Chonkly;letter-spacing:1.38543px;word-spacing:0px;fill:url(#linearGradient895);fill-opacity:1;stroke:#434343;stroke-width:0.349857;stroke-opacity:1"
       id="text851"
       aria-label="DUNGEON">
      <path
         id="path1018"
         style="font-size:16.4269px;fill:url(#linearGradient895);fill-opacity:1;stroke:#434343;stroke-width:0.349857;stroke-opacity:1"
         d="m 131.4291,67.584503 h -1.02668 -1.02668 -1.02669 -1.02668 V 66.557822 65.531141 64.504459 63.477778 62.451097 61.424415 60.397734 59.371053 58.344371 57.31769 56.291009 h 1.02668 1.02669 1.02668 1.02668 1.02668 v 1.026681 h 1.02668 v 1.026681 1.026682 1.026681 1.026681 1.026682 1.026681 1.026681 1.026682 1.026681 h -1.02668 v 1.026681 z m -1.02668,-2.053362 h 1.02668 v -1.026682 -1.026681 -1.026681 -1.026682 -1.026681 -1.026681 -1.026682 h -1.02668 -1.02668 v 1.026682 1.026681 1.026681 1.026682 1.026681 1.026681 1.026682 z" />
      <path
         id="path1020"
         style="font-style:normal;font-variant:normal;font-weight:500;font-stretch:normal;font-size:13.9943px;font-family:m6x11;-inkscape-font-specification:'m6x11 Medium';font-variant-ligatures:normal;font-variant-caps:normal;font-variant-numeric:normal;font-variant-east-asian:normal;fill:url(#linearGradient895);fill-opacity:1;stroke:#434343;stroke-width:0.349857;stroke-opacity:1"
         d="m 139.39315,67.584503 h -0.87465 -0.87464 -0.87464 v -0.874644 h -0.87465 v -0.874643 -0.874644 -0.874644 -0.874644 -0.874643 -0.874644 -0.874644 -0.874644 -0.874643 -0.874644 h 0.87465 0.87464 v 0.874644 0.874643 0.874644 0.874644 0.874644 0.874643 0.874644 0.874644 0.874644 h 0.87464 0.87465 v -0.874644 -0.874644 -0.874644 -0.874643 -0.874644 -0.874644 -0.874644 -0.874643 -0.874644 h 0.87464 0.87464 v 0.874644 0.874643 0.874644 0.874644 0.874644 0.874643 0.874644 0.874644 0.874644 0.874643 h -0.87464 v 0.874644 z" />
      <path
         id="path1022"
         style="font-style:normal;font-variant:normal;font-weight:500;font-stretch:normal;font-size:13.9943px;font-family:m6x11;-inkscape-font-specification:'m6x11 Medium';font-variant-ligatures:normal;font-variant-caps:normal;font-variant-numeric:normal;font-variant-east-asian:normal;fill:url(#linearGradient895);fill-opacity:1;stroke:#434343;stroke-width:0.349857;stroke-opacity:1"
         d="m 147.77573,67.584503 h -0.87465 v -0.874644 -0.874643 -0.874644 -0.874644 -0.874644 -0.874643 -0.874644 -0.874644 -0.874644 h -0.87464 -0.87464 v 0.874644 0.874644 0.874644 0.874643 0.874644 0.874644 0.874644 0.874643 0.874644 h -0.87465 -0.87464 v -0.874644 -0.874643 -0.874644 -0.874644 -0.874644 -0.874643 -0.874644 -0.874644 -0.874644 -0.874643 -0.874644 h 0.87464 0.87465 0.87464 0.87464 0.87465 v 0.874644 h 0.87464 v 0.874643 0.874644 0.874644 0.874644 0.874643 0.874644 0.874644 0.874644 0.874643 0.874644 z" />
      <path
         id="path1024"
         style="font-style:normal;font-variant:normal;font-weight:500;font-stretch:normal;font-size:13.9943px;font-family:m6x11;-inkscape-font-specification:'m6x11 Medium';font-variant-ligatures:normal;font-variant-caps:normal;font-variant-numeric:normal;font-variant-east-asian:normal;fill:url(#linearGradient895);fill-opacity:1;stroke:#434343;stroke-width:0.349857;stroke-opacity:1"
         d="m 154.40902,67.584503 h -0.87464 -0.87465 -0.87464 v -0.874644 h -0.87465 v -0.874643 -0.874644 -0.874644 -0.874644 -0.874643 -0.874644 -0.874644 -0.874644 -0.874643 h 0.87465 v -0.874644 h 0.87464 0.87465 0.87464 0.87464 0.87465 v 0.874644 0.874643 h -0.87465 -0.87464 -0.87464 -0.87465 v 0.874644 0.874644 0.874644 0.874643 0.874644 0.874644 0.874644 h 0.87465 0.87464 v -0.874644 -0.874644 -0.874644 h -0.87464 v -0.874643 -0.874644 h 0.87464 0.87464 0.87465 v 0.874644 0.874643 0.874644 0.874644 0.874644 0.874643 h -0.87465 v 0.874644 z" />
      <path
         id="path1026"
         style="font-style:normal;font-variant:normal;font-weight:500;font-stretch:normal;font-size:13.9943px;font-family:m6x11;-inkscape-font-specification:'m6x11 Medium';font-variant-ligatures:normal;font-variant-caps:normal;font-variant-numeric:normal;font-variant-east-asian:normal;fill:url(#linearGradient895);fill-opacity:1;stroke:#434343;stroke-width:0.349857;stroke-opacity:1"
         d="m 162.7916,67.584503 h -0.87464 -0.87465 -0.87464 -0.87465 v -0.874644 h -0.87464 v -0.874643 -0.874644 -0.874644 -0.874644 -0.874643 -0.874644 -0.874644 -0.874644 -0.874643 h 0.87464 v -0.874644 h 0.87465 0.87464 0.87465 0.87464 0.87464 v 0.874644 0.874643 h -0.87464 -0.87464 -0.87465 -0.87464 v 0.874644 0.874644 h 0.87464 0.87465 0.87464 v 0.874644 0.874643 h -0.87464 -0.87465 -0.87464 v 0.874644 0.874644 0.874644 h 0.87464 0.87465 0.87464 0.87464 v 0.874643 0.874644 z" />
      <path
         id="path1028"
         style="font-style:normal;font-variant:normal;font-weight:500;font-stretch:normal;font-size:13.9943px;font-family:m6x11;-inkscape-font-specification:'m6x11 Medium';font-variant-ligatures:normal;font-variant-caps:normal;font-variant-numeric:normal;font-variant-east-asian:normal;fill:url(#linearGradient895);fill-opacity:1;stroke:#434343;stroke-width:0.349857;stroke-opacity:1"
         d="m 169.42489,67.584503 h -0.87464 -0.87465 -0.87464 v -0.874644 h -0.87464 v -0.874643 -0.874644 -0.874644 -0.874644 -0.874643 -0.874644 -0.874644 -0.874644 -0.874643 h 0.87464 v -0.874644 h 0.87464 0.87465 0.87464 0.87464 v 0.874644 h 0.87465 v 0.874643 0.874644 0.874644 0.874644 0.874643 0.874644 0.874644 0.874644 0.874643 h -0.87465 v 0.874644 z m -0.87464,-1.749287 h 0.87464 v -0.874644 -0.874644 -0.874644 -0.874643 -0.874644 -0.874644 -0.874644 h -0.87464 -0.87465 v 0.874644 0.874644 0.874644 0.874643 0.874644 0.874644 0.874644 z" />
      <path
         id="path1030"
         style="font-size:16.4269px;fill:url(#linearGradient895);fill-opacity:1;stroke:#434343;stroke-width:0.349857;stroke-opacity:1"
         d="m 178.56766,67.584503 h -1.02668 v -1.026681 -1.026681 -1.026682 -1.026681 -1.026681 -1.026682 -1.026681 -1.026681 -1.026682 h -1.02668 -1.02668 v 1.026682 1.026681 1.026681 1.026682 1.026681 1.026681 1.026682 1.026681 1.026681 h -1.02669 -1.02668 V 66.557822 65.531141 64.504459 63.477778 62.451097 61.424415 60.397734 59.371053 58.344371 57.31769 56.291009 h 1.02668 1.02669 1.02668 1.02668 1.02668 v 1.026681 h 1.02668 v 1.026681 1.026682 1.026681 1.026681 1.026682 1.026681 1.026681 1.026682 1.026681 1.026681 z" />
    </g>
  </g>
</svg>
